<svg width="401" height="570" viewBox="0 0 401 570" fill="none" xmlns="http://www.w3.org/2000/svg">
<path d="M293.859 138.805C268.469 113.805 240.344 101.305 209.484 101.305C180.188 101.305 152.062 112.438 125.109 134.703C91.125 162.828 67.6875 199.156 54.7969 243.688C50.1094 259.703 47.7656 272.984 47.7656 283.531C47.7656 294.078 48.1562 302.281 48.9375 308.141C48.9375 346.812 62.0234 376.5 88.1953 397.203C112.805 416.344 144.25 425.914 182.531 425.914C234.875 421.617 285.07 401.5 333.117 365.562C346.398 355.406 360.461 345.641 375.305 336.266C380.773 336.266 386.242 337.047 391.711 338.609C397.57 340.172 400.5 344.664 400.5 352.086C361.828 385.68 329.211 409.898 302.648 424.742C253.43 451.305 208.898 464.586 169.055 464.586C166.32 464.586 163.781 464.586 161.438 464.586C118.078 464.586 80.9688 451.109 50.1094 424.156C17.2969 395.641 0.890625 360.094 0.890625 317.516C0.890625 285.484 6.55469 254.82 17.8828 225.523C29.6016 196.227 45.4219 170.445 65.3438 148.18C85.6562 125.523 109.484 107.555 136.828 94.2734C164.562 80.9922 194.25 74.3516 225.891 74.3516C252.844 74.3516 270.422 78.0625 278.625 85.4844C288.781 94.4688 293.859 112.242 293.859 138.805Z" fill="url(#paint0_linear)"/>
<path d="M216.539 553.375C216.539 564.443 208.727 569.977 193.102 569.977C181.383 569.977 167.385 564.443 151.109 553.375C143.297 535.797 139.391 493.805 139.391 427.398C139.391 360.992 140.042 306.305 141.344 263.336C142.646 219.716 143.948 179.677 145.25 143.219C149.156 63.7917 151.109 21.7995 151.109 17.2422C169.99 6.17448 185.615 0.640625 197.984 0.640625C210.354 0.640625 216.539 6.17448 216.539 17.2422V553.375Z" fill="url(#paint1_linear)"/>
<defs>
<linearGradient id="paint0_linear" x1="-8" y1="-128" x2="-8" y2="-116" gradientUnits="userSpaceOnUse">
<stop stop-color="#41FFFF"/>
<stop offset="0.796875" stop-color="#9441FF"/>
<stop offset="0.9997" stop-color="#9441FF" stop-opacity="0.98"/>
<stop offset="0.9998" stop-color="#9441FF"/>
<stop offset="0.9999" stop-color="#41FFFF"/>
</linearGradient>
<linearGradient id="paint1_linear" x1="190" y1="-418" x2="190" y2="972" gradientUnits="userSpaceOnUse">
<stop stop-color="#2AF8DF"/>
<stop offset="0.9998" stop-color="#2A3FF8"/>
<stop offset="0.9999" stop-color="#5A2AF8" stop-opacity="0.21875"/>
<stop offset="1" stop-color="#472AF8" stop-opacity="0"/>
<stop offset="1" stop-color="#472AF8"/>
</linearGradient>
</defs>
</svg>
